# Blender v2.74 (sub 0) OBJ File: 'skybox.blend'
# www.blender.org
mtllib skybox.mtl
o Cube_Cube.001
v -91.200012 -14.435390 91.200012
v -91.200012 167.964630 91.200012
v -91.200012 -14.435390 -91.200012
v -91.200012 167.964630 -91.200012
v 91.200012 -14.435390 91.200012
v 91.200012 167.964630 91.200012
v 91.200012 -14.435390 -91.200012
v 91.200012 167.964630 -91.200012
vt 0.000554 0.753875
vt 0.000554 0.246217
vt 0.246260 0.246217
vt 0.246095 0.000016
vt 0.753905 0.000016
vt 0.753905 0.246276
vt 1.000006 0.246095
vt 1.000006 0.753905
vt 0.753899 0.753904
vt 0.753905 0.999986
vt 0.246095 0.999986
vt 0.246095 0.753872
vt 0.528222 0.536198
vt 0.512821 0.536198
vt 0.512831 0.520306
vt 0.246095 0.246095
vt 0.753905 0.246095
vt 0.246260 0.753876
vt 0.246095 0.246276
vt 0.755226 0.246096
vt 0.528271 0.520355
vn 1.000000 0.000000 0.000000
vn 0.000000 0.000000 1.000000
vn -1.000000 0.000000 0.000000
vn 0.000000 0.000000 -1.000000
vn 0.000000 1.000000 0.000000
vn 0.000000 -1.000000 0.000000
usemtl Material
s off
f 1/1/1 3/2/1 4/3/1
f 3/4/2 7/5/2 8/6/2
f 7/7/3 5/8/3 6/9/3
f 5/10/4 1/11/4 2/12/4
f 5/13/5 7/14/5 3/15/5
f 2/12/6 4/16/6 8/17/6
f 2/18/1 1/1/1 4/3/1
f 4/19/2 3/4/2 8/6/2
f 8/20/3 7/7/3 6/9/3
f 6/9/4 5/10/4 2/12/4
f 1/21/5 5/13/5 3/15/5
f 6/9/6 2/12/6 8/17/6
